<?xml version="1.0" encoding="UTF-8" standalone="no"?><!-- Created with Inkscape (http://www.inkscape.org/) -->

<svg width="24" height="24" viewBox="0 0 6.3500001 6.3500001" version="1.1" id="svg1"
    xmlns="http://www.w3.org/2000/svg">
    <defs id="defs1" />
    <g id="layer1">
        <path id="rect5"
            d="m 1.8520833,0.52916667 c -0.2931583,0 -0.5291666,0.23600841 -0.5291666,0.52916663 v 4.2333334 c 0,0.2931583 0.2360083,0.5291666 0.5291666,0.5291666 h 2.6458334 c 0.2931583,0 0.5291666,-0.2360083 0.5291666,-0.5291666 V 1.0583333 c 0,-0.29315822 -0.2360083,-0.52916663 -0.5291666,-0.52916663 z M 3.175,1.0583333 A 1.0583333,1.0583333 0 0 1 4.2333333,2.1166667 1.0583333,1.0583333 0 0 1 3.175,3.175 1.0583333,1.0583333 0 0 1 2.1166667,2.1166667 1.0583333,1.0583333 0 0 1 3.175,1.0583333 Z M 2.1166667,3.7041667 H 4.2333333 V 4.2333333 H 2.1166667 Z m 0,1.0583333 H 4.2333333 V 5.2916667 H 2.1166667 Z" />
    </g>
</svg>
